<?xml version="1.0" standalone="no"?>
<!DOCTYPE svg PUBLIC "-//W3C//DTD SVG 20010904//EN"
 "http://www.w3.org/TR/2001/REC-SVG-20010904/DTD/svg10.dtd">
<svg version="1.0" xmlns="http://www.w3.org/2000/svg"
 width="130.000000pt" height="130.000000pt" viewBox="0 0 130.000000 130.000000"
 preserveAspectRatio="xMidYMid meet">
<metadata>
Created by potrace 1.14, written by Peter Selinger 2001-2017
</metadata>
<g transform="translate(0.000000,130.000000) scale(0.100000,-0.100000)"
fill="#000000" stroke="none">
<path d="M550 958 c-30 -11 -89 -26 -130 -34 l-75 -14 61 6 c34 2 96 15 137
28 81 25 92 17 23 -16 -37 -17 -38 -19 -11 -14 30 5 31 4 27 -30 l-4 -34 -89
0 c-89 0 -114 -11 -66 -29 16 -6 29 -26 42 -65 l19 -56 121 0 121 0 22 53 c15
35 25 48 31 39 6 -10 13 -9 31 6 24 19 24 19 42 -2 17 -21 17 -20 18 43 0 121
16 45 19 -91 l1 -48 58 0 57 1 23 50 c28 59 68 84 120 75 41 -6 89 -48 109
-94 19 -45 33 -31 33 33 0 68 -8 90 -26 75 -9 -8 -19 -8 -36 1 -13 7 -54 13
-93 13 -95 1 -145 -24 -200 -99 -13 -18 -14 -14 -15 50 0 86 -16 115 -63 115
-44 1 -144 23 -191 44 -46 19 -47 19 -116 -6z m230 -54 c0 -17 -22 -14 -28 4
-2 7 3 12 12 12 9 0 16 -7 16 -16z m80 -3 c0 -14 -38 -24 -52 -14 -9 5 -3 10
17 14 17 4 31 7 33 8 1 0 2 -3 2 -8z m-290 -106 c0 -14 -4 -25 -10 -25 -5 0
-10 11 -10 25 0 14 5 25 10 25 6 0 10 -11 10 -25z"/>
<path d="M326 888 c-4 -13 -9 -60 -11 -105 -4 -69 -2 -83 10 -83 12 0 15 19
15 105 0 58 -2 105 -4 105 -2 0 -7 -10 -10 -22z"/>
<path d="M94 846 c-46 -20 -76 -63 -72 -105 l3 -36 65 -2 c62 -3 64 -2 39 12
-48 26 -44 98 6 111 31 8 69 -15 95 -58 23 -38 33 -23 28 42 l-3 41 -65 4
c-40 3 -77 -1 -96 -9z"/>
<path d="M100 669 c0 -6 7 -17 15 -25 13 -14 15 -14 15 0 0 9 -6 16 -12 16 -9
0 -8 4 2 10 13 8 12 10 -2 10 -10 0 -18 -5 -18 -11z"/>
<path d="M159 671 c8 -5 11 -16 8 -25 -4 -9 -2 -16 3 -16 6 0 10 9 10 21 0 11
5 17 10 14 6 -3 10 -1 10 4 0 6 -12 11 -27 11 -20 0 -24 -3 -14 -9z"/>
<path d="M220 655 c0 -22 2 -24 14 -13 9 8 10 15 3 19 -5 4 -2 9 9 12 16 4 16
5 -3 6 -18 1 -23 -4 -23 -24z"/>
<path d="M280 655 c0 -22 2 -24 14 -13 9 8 10 15 3 19 -5 4 -2 9 9 12 16 4 16
5 -3 6 -18 1 -23 -4 -23 -24z"/>
<path d="M340 655 c0 -14 4 -25 8 -25 4 0 9 11 10 25 1 14 -3 25 -8 25 -6 0
-10 -11 -10 -25z"/>
<path d="M428 659 c9 -23 24 -27 31 -8 2 7 -1 9 -9 4 -10 -6 -12 -4 -7 8 4 11
1 17 -8 17 -10 0 -12 -6 -7 -21z"/>
<path d="M490 655 c0 -14 5 -25 10 -25 6 0 10 11 10 25 0 14 -4 25 -10 25 -5
0 -10 -11 -10 -25z"/>
<path d="M537 657 c6 -31 33 -31 33 0 0 16 -6 23 -19 23 -14 0 -17 -6 -14 -23z"/>
<path d="M596 672 c7 -4 14 -16 17 -27 4 -19 5 -19 6 2 0 12 7 24 14 26 6 3
-1 6 -18 6 -16 0 -25 -3 -19 -7z"/>
<path d="M660 661 c0 -11 5 -23 10 -26 6 -4 10 5 10 19 0 14 -4 26 -10 26 -5
0 -10 -9 -10 -19z"/>
<path d="M730 655 c0 -14 5 -25 11 -25 5 0 7 5 4 10 -3 6 0 10 7 10 10 0 10 2
-1 9 -11 7 -10 10 5 14 16 4 16 5 -3 6 -18 1 -23 -4 -23 -24z"/>
<path d="M827 673 c-10 -10 -8 -43 2 -43 5 0 7 10 3 22 -4 18 -2 20 16 16 12
-4 20 -2 16 3 -6 11 -28 12 -37 2z"/>
<path d="M890 656 c0 -18 5 -24 18 -23 23 1 22 41 -1 45 -12 3 -17 -4 -17 -22z"/>
<path d="M957 674 c-10 -11 -9 -44 2 -44 5 0 7 9 4 20 -4 14 0 20 12 20 12 0
16 -6 12 -20 -3 -11 -1 -20 5 -20 5 0 8 10 6 22 -3 23 -27 35 -41 22z"/>
<path d="M1020 661 c0 -11 5 -23 10 -26 6 -4 10 5 10 19 0 14 -4 26 -10 26 -5
0 -10 -9 -10 -19z"/>
<path d="M1091 653 l1 -28 8 25 c4 14 8 19 9 12 1 -7 6 -10 11 -7 13 8 3 25
-16 25 -9 0 -14 -10 -13 -27z"/>
<path d="M850 640 c0 -5 5 -10 10 -10 6 0 10 5 10 10 0 6 -4 10 -10 10 -5 0
-10 -4 -10 -10z"/>
<path d="M1160 613 c0 -6 10 -13 23 -15 19 -3 22 -10 25 -49 4 -56 -12 -72
-69 -72 -51 0 -88 26 -114 81 -18 40 -22 42 -62 42 -34 0 -43 -4 -43 -18 0
-31 49 -91 93 -114 55 -29 170 -31 240 -4 l47 19 0 68 0 67 -70 4 c-49 2 -70
-1 -70 -9z"/>
<path d="M190 591 c0 -6 5 -13 10 -16 12 -7 13 -55 2 -72 -4 -6 -20 -17 -36
-22 -40 -16 -77 4 -101 57 -11 23 -22 42 -26 42 -10 0 -19 -40 -19 -84 0 -28
4 -37 14 -33 7 3 33 -1 57 -10 65 -22 120 -10 158 33 24 26 31 44 31 74 l0 40
-45 0 c-25 0 -45 -4 -45 -9z"/>
<path d="M340 583 c0 -10 13 -46 30 -81 50 -106 186 -232 251 -232 34 0 133
72 182 132 57 69 105 186 81 195 -6 2 -21 -23 -33 -56 -22 -62 -77 -140 -98
-140 -7 -1 -19 -12 -28 -24 -8 -13 -35 -38 -60 -56 l-46 -33 -43 26 c-24 14
-68 54 -97 88 -30 35 -57 65 -60 68 -4 3 -20 33 -35 68 -29 62 -44 78 -44 45z"/>
<path d="M526 576 c-3 -13 -3 -33 0 -43 5 -15 4 -15 -5 -3 -7 10 -11 11 -11 3
0 -23 -70 -16 -92 10 l-19 22 14 -30 c8 -16 20 -41 26 -55 7 -14 22 -36 35
-50 24 -27 98 -93 80 -72 -9 10 -3 21 24 48 l36 35 28 -31 c16 -18 26 -36 23
-41 -13 -20 22 -8 54 19 l34 28 -31 66 c-18 36 -33 76 -35 89 -4 23 -8 24 -79
27 -73 2 -76 1 -82 -22z"/>
</g>
</svg>
